<svg xmlns="http://www.w3.org/2000/svg" version="1.1" xmlns:xlink="http://www.w3.org/1999/xlink" xmlns:svgjs="http://svgjs.dev/svgjs" width="1000" height="249" viewBox="0 0 1000 249"><g transform="matrix(1,0,0,1,-0.6060606060606233,-0.23456240457632305)"><svg viewBox="0 0 396 99" data-background-color="#fafafa" preserveAspectRatio="xMidYMid meet" height="249" width="1000" xmlns="http://www.w3.org/2000/svg" xmlns:xlink="http://www.w3.org/1999/xlink"><g id="tight-bounds" transform="matrix(1,0,0,1,0.2400000000000091,0.09325975121709007)"><svg viewBox="0 0 395.52 98.8134804975658" height="98.8134804975658" width="395.52"><g><svg viewBox="0 0 559.0456549455685 139.6673920970187" height="98.8134804975658" width="395.52"><g transform="matrix(1,0,0,1,163.52565494556842,19.302801657402732)"><svg viewBox="0 0 395.52 101.06178878221324" height="101.06178878221324" width="395.52"><g><svg viewBox="0 0 395.52 101.06178878221324" height="101.06178878221324" width="395.52"><g><svg viewBox="0 0 395.52 101.06178878221324" height="101.06178878221324" width="395.52"><g transform="matrix(1,0,0,1,0,0)"><svg width="395.52" viewBox="0.71 -36.55 144.92999999999998 37.04" height="101.06178878221324" data-palette-color="#130912"><path d="M20.7 0L15.65 0Q13.23 0 11.11-0.92 8.98-1.83 7.39-3.43 5.79-5.03 4.87-7.15 3.96-9.28 3.96-11.69L3.96-11.69 3.96-19.46 0.71-19.46 0.71-26.1 3.96-26.1 3.96-36.55 10.6-36.55 10.6-26.1 20.7-26.1 20.7-19.46 10.6-19.46 10.6-11.69Q10.6-10.64 10.99-9.73 11.38-8.81 12.06-8.13 12.74-7.45 13.67-7.04 14.6-6.64 15.65-6.64L15.65-6.64 20.7-6.64 20.7 0ZM31.1-14.4L31.1 0 24.44 0 24.44-26.15 26.05-26.15 28.24-23.05Q29.86-24.51 31.91-25.31 33.96-26.1 36.15-26.1L36.15-26.1 42.04-26.1 42.04-19.46 36.15-19.46Q35.1-19.46 34.18-19.07 33.25-18.68 32.57-17.99 31.88-17.31 31.49-16.38 31.1-15.45 31.1-14.4L31.1-14.4ZM67.55-21.46L55.05-6.4Q55.44-6.27 55.83-6.24 56.22-6.2 56.61-6.2L56.61-6.2Q57.59-6.2 58.49-6.47 59.39-6.74 60.19-7.24 60.98-7.74 61.6-8.46 62.23-9.18 62.62-10.06L62.62-10.06 67.5-5.15Q66.57-3.83 65.36-2.78 64.16-1.73 62.75-1 61.35-0.27 59.8 0.11 58.25 0.49 56.61 0.49L56.61 0.49Q53.85 0.49 51.42-0.54 48.99-1.56 47.18-3.39 45.36-5.22 44.31-7.75 43.26-10.28 43.26-13.31L43.26-13.31Q43.26-16.41 44.31-18.97 45.36-21.53 47.18-23.34 48.99-25.15 51.42-26.15 53.85-27.15 56.61-27.15L56.61-27.15Q58.25-27.15 59.81-26.76 61.37-26.37 62.78-25.63 64.18-24.9 65.4-23.84 66.62-22.78 67.55-21.46L67.55-21.46ZM50.7-9.84L58.47-20.14Q58-20.31 57.55-20.36 57.1-20.41 56.61-20.41L56.61-20.41Q55.24-20.41 54.04-19.91 52.83-19.41 51.94-18.48 51.04-17.55 50.53-16.25 50.02-14.94 50.02-13.31L50.02-13.31Q50.02-12.94 50.06-12.48 50.09-12.01 50.18-11.54 50.26-11.06 50.39-10.62 50.51-10.18 50.7-9.84L50.7-9.84ZM96.01-26.1L96.01 0 94.4 0 91.81-3.59Q90.86-2.73 89.8-1.99 88.74-1.25 87.57-0.7 86.39-0.15 85.16 0.17 83.93 0.49 82.66 0.49L82.66 0.49Q79.9 0.49 77.47-0.44 75.04-1.37 73.22-3.14 71.4-4.91 70.35-7.47 69.3-10.03 69.3-13.31L69.3-13.31Q69.3-16.36 70.35-18.91 71.4-21.46 73.22-23.29 75.04-25.12 77.47-26.14 79.9-27.15 82.66-27.15L82.66-27.15Q83.93-27.15 85.17-26.83 86.42-26.51 87.59-25.95 88.76-25.39 89.82-24.63 90.89-23.88 91.81-23L91.81-23 94.4-26.1 96.01-26.1ZM89.3-13.31L89.3-13.31Q89.3-14.67 88.77-15.95 88.25-17.24 87.35-18.23 86.44-19.21 85.23-19.81 84.03-20.41 82.66-20.41L82.66-20.41Q81.29-20.41 80.08-19.95 78.87-19.48 77.98-18.58 77.09-17.68 76.58-16.35 76.07-15.01 76.07-13.31L76.07-13.31Q76.07-11.6 76.58-10.27 77.09-8.94 77.98-8.03 78.87-7.13 80.08-6.67 81.29-6.2 82.66-6.2L82.66-6.2Q84.03-6.2 85.23-6.8 86.44-7.4 87.35-8.39 88.25-9.38 88.77-10.66 89.3-11.94 89.3-13.31ZM119.25 0L114.2 0Q111.78 0 109.66-0.92 107.53-1.83 105.93-3.43 104.34-5.03 103.42-7.15 102.5-9.28 102.5-11.69L102.5-11.69 102.5-19.46 99.26-19.46 99.26-26.1 102.5-26.1 102.5-36.55 109.15-36.55 109.15-26.1 119.25-26.1 119.25-19.46 109.15-19.46 109.15-11.69Q109.15-10.64 109.54-9.73 109.93-8.81 110.61-8.13 111.29-7.45 112.22-7.04 113.15-6.64 114.2-6.64L114.2-6.64 119.25-6.64 119.25 0ZM137.34 0L137.34 0 122.11 0 122.11-6.64 137.34-6.64Q138.02-6.64 138.51-7.13 139-7.62 139-8.3L139-8.3Q139-9.01 138.51-9.23 138.02-9.45 137.34-9.45L137.34-9.45 130.41-9.45Q128.67-9.45 127.16-10.11 125.65-10.77 124.52-11.9 123.4-13.04 122.75-14.55 122.11-16.06 122.11-17.8L122.11-17.8Q122.11-19.53 122.75-21.04 123.4-22.56 124.52-23.68 125.65-24.8 127.16-25.45 128.67-26.1 130.41-26.1L130.41-26.1 143.91-26.1 143.91-19.46 130.41-19.46Q129.72-19.46 129.24-18.97 128.75-18.48 128.75-17.8L128.75-17.8Q128.75-17.09 129.24-16.59 129.72-16.09 130.41-16.09L130.41-16.09 137.34-16.09Q139.05-16.09 140.56-15.52 142.08-14.94 143.2-13.92 144.32-12.89 144.98-11.45 145.64-10.01 145.64-8.3L145.64-8.3Q145.64-6.57 144.98-5.07 144.32-3.56 143.2-2.43 142.08-1.29 140.56-0.65 139.05 0 137.34 0Z" opacity="1" transform="matrix(1,0,0,1,0,0)" fill="#130912" class="undefined-text-0" data-fill-palette-color="primary" id="text-0"></path></svg></g></svg></g></svg></g></svg></g><g><svg viewBox="0 0 139.66739209701865 139.6673920970187" height="139.6673920970187" width="139.66739209701865"><g><svg xmlns="http://www.w3.org/2000/svg" xmlns:xlink="http://www.w3.org/1999/xlink" version="1.1" x="0" y="0" viewBox="11.026000000000003 11.026 77.94899999999998 77.94900000000001" enable-background="new 0 0 100 100" xml:space="preserve" height="139.6673920970187" width="139.66739209701865" class="icon-icon-0" data-fill-palette-color="accent" id="icon-0"><path d="M50 11.026c-21.525 0-38.974 17.449-38.974 38.974 0 12.283 5.688 23.232 14.567 30.376l-14.567 8.599H50c21.525 0 38.975-17.449 38.975-38.975C88.975 28.475 71.523 11.026 50 11.026zM49.999 85.507H23.961l8.242-4.786C21.617 74.574 14.493 63.123 14.493 50c0-19.61 15.896-35.506 35.506-35.506 19.61 0 35.507 15.896 35.507 35.506C85.506 69.609 69.609 85.507 49.999 85.507zM43.337 67.25c-2.068 0-3.75-1.683-3.75-3.75s1.682-3.75 3.75-3.75 3.75 1.683 3.75 3.75S45.405 67.25 43.337 67.25zM43.337 61.75c-0.965 0-1.75 0.785-1.75 1.75s0.785 1.75 1.75 1.75 1.75-0.785 1.75-1.75S44.302 61.75 43.337 61.75zM55.919 67.25c-2.067 0-3.75-1.683-3.75-3.75s1.683-3.75 3.75-3.75 3.75 1.683 3.75 3.75S57.986 67.25 55.919 67.25zM55.919 61.75c-0.965 0-1.75 0.785-1.75 1.75s0.785 1.75 1.75 1.75 1.75-0.785 1.75-1.75S56.884 61.75 55.919 61.75zM60.792 53.5h-19.65c0.197 0.745 0.35 1.323 0.434 1.644 0.374 1.436 1.127 1.44 1.139 1.442l15.789-0.003c2.083 0 3.148 1.53 3.449 2.435 0.174 0.523-0.109 1.09-0.634 1.265-0.104 0.034-0.211 0.051-0.315 0.051-0.416 0-0.803-0.261-0.945-0.674-0.043-0.117-0.427-1.076-1.555-1.076H42.794c-0.017 0.001-2.348 0.157-3.155-2.934-0.523-2.007-3.664-13.805-4.488-16.899h-3.898c-0.552 0-1-0.448-1-1s0.448-1 1-1h4.667c0.453 0 0.85 0.305 0.966 0.743 0 0 2.324 8.727 3.725 14.007h19.451l3.399-10.582H39.915c-0.552 0-1-0.448-1-1s0.448-1 1-1h24.918c0.319 0 0.62 0.153 0.808 0.411 0.188 0.258 0.242 0.591 0.145 0.895l-4.041 12.582C61.611 53.22 61.227 53.5 60.792 53.5z" fill="#e77917" data-fill-palette-color="accent"></path></svg></g></svg></g></svg></g><defs></defs></svg><rect width="395.52" height="98.8134804975658" fill="none" stroke="none" visibility="hidden"></rect></g></svg></g></svg>